<?xml version="1.0" encoding="UTF-8"?>
<svg width="24px" height="24px" viewBox="0 0 24 24" version="1.1" xmlns="http://www.w3.org/2000/svg" xmlns:xlink="http://www.w3.org/1999/xlink">
    <!-- Generator: Sketch 53.2 (72643) - https://sketchapp.com -->
    <title>Artboard Copy 3</title>
    <desc>Created with Sketch.</desc>
    <g id="Artboard-Copy-3" stroke="none" stroke-width="1" fill="none" fill-rule="evenodd">
        <g id="checklist---gray---installable">
            <g id="Group">
                <rect id="Rectangle" x="0" y="0" width="24" height="24"></rect>
                <circle id="Oval-Copy-12" fill-opacity="0.15" fill="#000000" fill-rule="nonzero" cx="12" cy="12" r="10"></circle>
                <path d="M12,6 C8.688,6 6,8.688 6,12 C6,15.312 8.688,18 12,18 C15.312,18 18,15.312 18,12 C18,8.688 15.312,6 12,6 Z M15,12.6 L12.6,12.6 L12.6,15 L11.4,15 L11.4,12.6 L9,12.6 L9,11.4 L11.4,11.4 L11.4,9 L12.6,9 L12.6,11.4 L15,11.4 L15,12.6 Z" id="Shape" fill="#FFFFFF" fill-rule="nonzero"></path>
            </g>
        </g>
    </g>
</svg>