<?xml version="1.0" encoding="UTF-8"?>
<svg width="24px" height="24px" viewBox="0 0 24 24" version="1.1" xmlns="http://www.w3.org/2000/svg" xmlns:xlink="http://www.w3.org/1999/xlink">
    <!-- Generator: Sketch 56.2 (81672) - https://sketch.com -->
    <title>Artboard</title>
    <desc>Created with Sketch.</desc>
    <g id="Artboard" stroke="none" stroke-width="1" fill="none" fill-rule="evenodd">
        <g id="source-branch" transform="translate(5.500000, 2.000000)" fill="#000000" fill-rule="nonzero">
            <path d="M9,12 C5.64,12 4.54,13.35 4.18,14.24 C5.25,14.7 6,15.76 6,17 C6,18.6568542 4.65685425,20 3,20 C1.34314575,20 -8.8817842e-16,18.6568542 -8.8817842e-16,17 C-8.8817842e-16,15.69 0.83,14.58 2,14.17 L2,5.83 C0.83,5.42 -8.8817842e-16,4.31 -8.8817842e-16,3 C-8.8817842e-16,1.34314575 1.34314575,-4.4408921e-16 3,-4.4408921e-16 C4.65685425,-4.4408921e-16 6,1.34314575 6,3 C6,4.31 5.17,5.42 4,5.83 L4,11.12 C4.88,10.47 6.16,10 8,10 C10.67,10 11.56,8.66 11.85,7.77 C10.77,7.32 10,6.25 10,5 C10,3.34314575 11.3431458,2 13,2 C14.6568542,2 16,3.34314575 16,5 C16,6.34 15.12,7.5 13.91,7.86 C13.65,9.29 12.68,12 9,12 L9,12 Z M3,16 C2.44771525,16 2,16.4477153 2,17 C2,17.5522847 2.44771525,18 3,18 C3.55228475,18 4,17.5522847 4,17 C4,16.4477153 3.55228475,16 3,16 L3,16 Z M3,2 C2.44771525,2 2,2.44771525 2,3 C2,3.55228475 2.44771525,4 3,4 C3.55228475,4 4,3.55228475 4,3 C4,2.44771525 3.55228475,2 3,2 L3,2 Z M13,4 C12.4477153,4 12,4.44771525 12,5 C12,5.55228475 12.4477153,6 13,6 C13.5522847,6 14,5.55228475 14,5 C14,4.44771525 13.5522847,4 13,4 Z" id="Shape"></path>
        </g>
    </g>
</svg>