<?xml version="1.0" encoding="UTF-8"?>
<svg width="96px" height="96px" viewBox="0 0 96 96" version="1.1" xmlns="http://www.w3.org/2000/svg" xmlns:xlink="http://www.w3.org/1999/xlink">
    <!-- Generator: Sketch 53.2 (72643) - https://sketchapp.com -->
    <title>Artboard</title>
    <desc>Created with Sketch.</desc>
    <defs>
        <linearGradient x1="76.0562252%" y1="76.320045%" x2="25.6782195%" y2="31.2483595%" id="linearGradient-1">
            <stop stop-color="#64B5F6" offset="0%"></stop>
            <stop stop-color="#2979FF" offset="100%"></stop>
        </linearGradient>
    </defs>
    <g id="Artboard" stroke="none" stroke-width="1" fill="none" fill-rule="evenodd">
        <circle id="Oval-Copy-4" cx="48" cy="48" r="48"></circle>
        <path d="M85.8061144,77.5786974 C78.9705475,86.3033218 69.1804154,92.6021478 57.9417384,94.9691554 L36.8,73.827417 L59.427417,51.2 L85.8061144,77.5786974 Z" id="Path" fill="url(#linearGradient-1)"></path>
        <polygon id="Path" fill="#BDBDBD" points="57.0613771 31.0198335 58.1706885 28.2260571 61.373705 28.2260571 59.8536394 23.988049 61.7547541 19.2000104 67.2 33.5986873 63.1843278 33.5986873 62.253836 31.0198335"></polygon>
        <polygon id="Path" fill="#BDBDBD" points="53.6354754 33.5987265 59.4647213 19.2000307 55.6001312 19.2000498 51.6125902 28.5048098 48.7770491 19.2000689 45.8065378 19.2000689 42.7619213 28.5048098 40.6147869 24.2648229 38.6717115 30.226658 40.6445115 33.5987265 44.4477443 33.5987265 47.1990294 25.2543673 49.8222294 33.5987265"></polygon>
        <path d="M32.4683803,28.6558629 L34.8487672,28.6558629 C35.5698295,28.6558629 36.2119082,28.5757127 36.7750033,28.4154122 L37.3906033,26.5266024 L39.1111082,21.2476604 C38.9800131,21.0407216 38.8303475,20.8450619 38.6621115,20.6607066 C37.7787344,19.6868963 36.4862754,19.200008 34.7846951,19.200008 L28.7999999,19.200008 L28.7999999,33.5986873 L32.4683803,33.5986873 L32.4683803,28.6558629 Z M35.6191869,22.5125682 C35.9642361,22.8584229 36.136741,23.3212408 36.136741,23.9010612 C36.136741,24.485329 35.9850098,24.9487151 35.6815672,25.2912196 C35.3489115,25.671791 34.7363803,25.8620669 33.8440131,25.8620669 L32.4683803,25.8620669 L32.4683803,21.9937567 L33.8541246,21.9937567 C34.6858033,21.9937567 35.2741574,22.1666939 35.6191869,22.5125682 Z" id="Shape" fill="#BDBDBD" fill-rule="nonzero"></path>
        <g id="Sub---fast-reliable" transform="translate(32.000000, 46.400000)">
            <circle id="Oval-Copy-5" fill="#FFFFFF" cx="16" cy="16" r="16"></circle>
            <path d="M16,5.73333333 L24.4,9.46666667 L24.4,15.0666667 C24.4,20.2466667 20.816,25.0906667 16,26.2666667 C11.184,25.0906667 7.6,20.2466667 7.6,15.0666667 L7.6,9.46666667 L16,5.73333333 Z M15.2505684,22.9069682 C15.2505684,22.9069682 16.7140678,20.3309104 19.6560005,15.1862616 L19.7082683,15.0742591 C19.7754699,14.9398561 19.7232021,14.6934506 19.3573272,14.6934506 L16.7439352,14.6934506 L17.4906186,9.46666667 L16.7439352,9.46666667 C14.817492,12.8566094 13.3689262,15.395333 12.4057046,17.0977712 C12.3907709,17.1276386 12.4953066,16.9335008 12.3534367,17.1873731 C12.2115669,17.4412456 12.2041,17.6801842 12.6371764,17.6801842 L15.2505684,17.6801842 L14.503885,22.9069682 L15.2505684,22.9069682 Z" id="Shape" fill="#304FFE" fill-rule="nonzero"></path>
        </g>
    </g>
</svg>