<?xml version="1.0" encoding="UTF-8"?>
<svg width="192px" height="192px" viewBox="0 0 192 192" version="1.1" xmlns="http://www.w3.org/2000/svg" xmlns:xlink="http://www.w3.org/1999/xlink">
    <!-- Generator: Sketch 53.2 (72643) - https://sketchapp.com -->
    <title>symbol_1_white</title>
    <desc>Created with Sketch.</desc>
    <g id="symbol_1_white" stroke="none" stroke-width="1" fill="none" fill-rule="evenodd">
        <g id="Group">
            <g>
                <rect id="Rectangle" x="0" y="0" width="192" height="192"></rect>
                <path d="M67.7054588,179.352453 L70.3079591,158.532451 L119.643145,142.141282 L124.294541,179.352453 C115.41478,182.365787 105.898235,184 96,184 C86.1017646,184 76.5852201,182.365787 67.7054588,179.352453 L67.7054588,179.352453 Z M52.439998,172.48 C25.8942826,157.328 8,128.753717 8,96 C8,47.398942 47.398942,8 96,8 C144.601058,8 184,47.398942 184,96 C184,128.753717 166.105717,157.328 139.560002,172.48 L130,96 L136,96 L136,80 L128,80 L128,48 L96,28 L64,48 L64,80 L56,80 L56,96 L62,96 L52.4399988,172.48001 L52.439998,172.48 Z M113.875485,96 L116.756843,119.050869 L73.439198,133.48254 L78.1245155,96 L113.875485,96 Z M80,80 L80,56.8679623 L96,46.8679623 L112,56.8679623 L112,80 L80,80 Z" id="Shape" fill="#FFFFFF"></path>
            </g>
        </g>
    </g>
</svg>