<?xml version="1.0" encoding="UTF-8"?>
<svg width="192px" height="192px" viewBox="0 0 192 192" version="1.1" xmlns="http://www.w3.org/2000/svg" xmlns:xlink="http://www.w3.org/1999/xlink">
    <!-- Generator: Sketch 53.2 (72643) - https://sketchapp.com -->
    <title>symbol_2_black</title>
    <desc>Created with Sketch.</desc>
    <g id="symbol_2_black" stroke="none" stroke-width="1" fill="none" fill-rule="evenodd">
        <g id="Group">
            <g>
                <rect id="Rectangle" x="0" y="0" width="192" height="192"></rect>
                <path d="M55.0726972,155.244397 L62.1016949,96 L56,96 L56,80 L64,80 L64,48 L96,28 L128,48 L128,80 L136,80 L136,96 L129.898305,96 L136.927301,155.244398 C155.701762,142.250018 168,120.561212 168,96 C168,56.235498 135.764502,24 96,24 C56.235498,24 24,56.235498 24,96 C24,120.561212 36.2982374,142.250016 55.07269,155.244392 L55.0726972,155.244397 Z M121.765242,163.252878 L118.475976,135.529063 L71.6793759,151.07681 L70.2347577,163.252878 C78.2346601,166.319608 86.9210918,168 96,168 C105.078908,168 113.76534,166.319608 121.765242,163.252878 L121.765242,163.252878 Z M113.786087,96 L78.2139127,96 L74.6450025,126.080815 L115.730977,112.392646 L113.786087,96 Z M80,80 L112,80 L112,56.8679623 L96,46.8679623 L80,56.8679623 L80,80 Z M96,184 C47.398942,184 8,144.601058 8,96 C8,47.398942 47.398942,8 96,8 C144.601058,8 184,47.398942 184,96 C184,144.601058 144.601058,184 96,184 Z" id="Shape" fill="#000000"></path>
            </g>
        </g>
    </g>
</svg>