<?xml version="1.0" encoding="UTF-8"?>
<svg width="20px" height="20px" viewBox="0 0 20 20" version="1.1" xmlns="http://www.w3.org/2000/svg" xmlns:xlink="http://www.w3.org/1999/xlink">
    <!-- Generator: Sketch 53.2 (72643) - https://sketchapp.com -->
    <title>checklist - color - fast and reliable</title>
    <desc>Created with Sketch.</desc>
    <g id="Page-1" stroke="none" stroke-width="1" fill="none" fill-rule="evenodd">
        <g id="Artboard" transform="translate(-2.000000, -2.000000)">
            <g id="checklist---color---fast-and-reliable">
                <g id="Group">
                    <rect id="Rectangle" x="0" y="0" width="24" height="24"></rect>
                    <g id="Group-2" transform="translate(2.000000, 2.000000)" fill-rule="nonzero">
                        <circle id="Oval-Copy-5" fill="#0CCE6B" cx="10" cy="10" r="10"></circle>
                        <path d="M10,4 L15,6.22222222 L15,9.55555556 C15,12.6388889 12.8666667,15.5222222 10,16.2222222 C7.13333333,15.5222222 5,12.6388889 5,9.55555556 L5,6.22222222 L10,4 Z M9.55390974,14.2224017 C9.55390974,14.2224017 10.4250404,12.6890339 12.1761908,9.62674303 L12.2073026,9.56007487 C12.2473035,9.48007307 12.2161917,9.33340312 11.998409,9.33340312 L10.4428186,9.33340312 L10.887273,6.22222222 L10.4428186,6.22222222 C9.29612618,8.24004526 8.43388462,9.75119027 7.86053843,10.7645463 C7.85164934,10.7823245 7.91387296,10.6667664 7.82942662,10.8178809 C7.74498028,10.9689954 7.74053574,11.1112208 7.9983193,11.1112208 L9.55390974,11.1112208 L9.10945533,14.2224017 L9.55390974,14.2224017 Z" id="Shape" fill="#FFFFFF"></path>
                    </g>
                </g>
            </g>
        </g>
    </g>
</svg>