<?xml version="1.0" encoding="UTF-8"?>
<svg width="20px" height="20px" viewBox="0 0 20 20" version="1.1" xmlns="http://www.w3.org/2000/svg" xmlns:xlink="http://www.w3.org/1999/xlink">
    <!-- Generator: Sketch 53.2 (72643) - https://sketchapp.com -->
    <title>checklist - color - installable</title>
    <desc>Created with Sketch.</desc>
    <g id="Page-1" stroke="none" stroke-width="1" fill="none" fill-rule="evenodd">
        <g id="Artboard" transform="translate(-2.000000, -2.000000)">
            <g id="checklist---color---installable">
                <g id="Group">
                    <rect id="Rectangle" x="0" y="0" width="24" height="24"></rect>
                    <g id="Sub---installable" transform="translate(2.000000, 2.000000)" fill-rule="nonzero">
                        <circle id="Oval-Copy-12" fill="#0CCE6B" cx="10" cy="10" r="10"></circle>
                        <path d="M10,4 C6.688,4 4,6.688 4,10 C4,13.312 6.688,16 10,16 C13.312,16 16,13.312 16,10 C16,6.688 13.312,4 10,4 Z M13,10.6 L10.6,10.6 L10.6,13 L9.4,13 L9.4,10.6 L7,10.6 L7,9.4 L9.4,9.4 L9.4,7 L10.6,7 L10.6,9.4 L13,9.4 L13,10.6 Z" id="Shape" fill="#FFFFFF"></path>
                    </g>
                </g>
            </g>
        </g>
    </g>
</svg>