<?xml version="1.0" encoding="UTF-8"?>
<svg width="24px" height="24px" viewBox="0 0 24 24" version="1.1" xmlns="http://www.w3.org/2000/svg" xmlns:xlink="http://www.w3.org/1999/xlink">
    <!-- Generator: Sketch 53.2 (72643) - https://sketchapp.com -->
    <title>Artboard</title>
    <desc>Created with Sketch.</desc>
    <g id="Artboard" stroke="none" stroke-width="1" fill="none" fill-rule="evenodd">
        <g id="checklist---gray---fast-and-reliable">
            <g id="Group-2">
                <rect id="Rectangle" x="0" y="0" width="24" height="24"></rect>
                <circle id="Oval-Copy-5" fill-opacity="0.15" fill="#000000" fill-rule="nonzero" cx="12" cy="12" r="10"></circle>
                <path d="M12,6 L17,8.22222222 L17,11.5555556 C17,14.6388889 14.8666667,17.5222222 12,18.2222222 C9.13333333,17.5222222 7,14.6388889 7,11.5555556 L7,8.22222222 L12,6 Z M11.5539097,16.2224017 C11.5539097,16.2224017 12.4250404,14.6890339 14.1761908,11.626743 L14.2073026,11.5600749 C14.2473035,11.4800731 14.2161917,11.3334031 13.998409,11.3334031 L12.4428186,11.3334031 L12.887273,8.22222222 L12.4428186,8.22222222 C11.2961262,10.2400453 10.4338846,11.7511903 9.86053843,12.7645463 C9.85164934,12.7823245 9.91387296,12.6667664 9.82942662,12.8178809 C9.74498028,12.9689954 9.74053574,13.1112208 9.9983193,13.1112208 L11.5539097,13.1112208 L11.1094553,16.2224017 L11.5539097,16.2224017 Z" id="Shape" fill="#FFFFFF" fill-rule="nonzero"></path>
            </g>
        </g>
    </g>
</svg>