<?xml version="1.0" encoding="UTF-8"?>
<svg width="24px" height="24px" viewBox="0 0 24 24" version="1.1" xmlns="http://www.w3.org/2000/svg" xmlns:xlink="http://www.w3.org/1999/xlink">
    <!-- Generator: Sketch 54.1 (76490) - https://sketchapp.com -->
    <title>ic_lighthouse_24x24_b</title>
    <desc>Created with Sketch.</desc>
    <g id="ic_lighthouse_24x24_b" stroke="none" stroke-width="1" fill="none" fill-rule="evenodd">
        <g id="Group-Copy-3">
            <rect id="Rectangle" x="0" y="0" width="24" height="24"></rect>
            <path d="M8,8 L8,4 L12,1.5 L16,4 L16,8 L17,8 L17,10 L16.2372881,10 L17.75,22.75 L6.25,22.75 L7.76271186,10 L7,10 L7,8 L8,8 Z M10,8 L14,8 L14,5.10849528 L12,3.85849528 L10,5.10849528 L10,8 Z M9.29145676,14.0902368 L8.81483074,18.1075132 L14.9672735,16.2709631 L14.5232532,12.5285065 L9.29145676,14.0902368 Z" id="Shape" fill="#000000"></path>
            <polygon id="Rectangle" fill="#000000" transform="translate(3.750000, 7.500000) scale(1, -1) rotate(10.000000) translate(-3.750000, -7.500000) " points="1.25 6.75 6.25 6.75 6.25 8.25 1.25 8.25"></polygon>
            <polygon id="Rectangle-Copy" fill="#000000" transform="translate(3.750000, 4.250000) rotate(10.000000) translate(-3.750000, -4.250000) " points="1.25 3.5 6.25 3.5 6.25 5 1.25 5"></polygon>
            <polygon id="Rectangle" fill="#000000" transform="translate(20.250000, 7.500000) scale(-1, -1) rotate(10.000000) translate(-20.250000, -7.500000) " points="17.75 6.75 22.75 6.75 22.75 8.25 17.75 8.25"></polygon>
            <polygon id="Rectangle-Copy" fill="#000000" transform="translate(20.250000, 4.250000) scale(-1, 1) rotate(10.000000) translate(-20.250000, -4.250000) " points="17.75 3.5 22.75 3.5 22.75 5 17.75 5"></polygon>
        </g>
    </g>
</svg>