<?xml version="1.0" encoding="UTF-8"?>
<svg width="16px" height="16px" viewBox="0 0 16 16" version="1.1" xmlns="http://www.w3.org/2000/svg" xmlns:xlink="http://www.w3.org/1999/xlink">
    <!-- Generator: Sketch 58 (84663) - https://sketch.com -->
    <title>lh_favicon_16x16</title>
    <desc>Created with Sketch.</desc>
    <defs>
        <linearGradient x1="69.3080104%" y1="13.0863251%" x2="11.1370021%" y2="100.996123%" id="linearGradient-1">
            <stop stop-color="#262626" stop-opacity="0.1" offset="0%"></stop>
            <stop stop-color="#262626" stop-opacity="0" offset="100%"></stop>
        </linearGradient>
        <linearGradient x1="0%" y1="50%" x2="100%" y2="50%" id="linearGradient-2">
            <stop stop-color="#262626" stop-opacity="0.1" offset="0%"></stop>
            <stop stop-color="#262626" stop-opacity="0" offset="100%"></stop>
        </linearGradient>
        <linearGradient x1="70.934256%" y1="65.7561304%" x2="29.065744%" y2="35.7993836%" id="linearGradient-3">
            <stop stop-color="#262626" stop-opacity="0.1" offset="0%"></stop>
            <stop stop-color="#262626" stop-opacity="0" offset="100%"></stop>
        </linearGradient>
        <linearGradient x1="31.1790966%" y1="20.3583319%" x2="69.7157686%" y2="100.652008%" id="linearGradient-4">
            <stop stop-color="#FFFFFF" stop-opacity="0.1" offset="0%"></stop>
            <stop stop-color="#FFFFFF" stop-opacity="0" offset="100%"></stop>
        </linearGradient>
    </defs>
    <g id="lh_favicon_16x16" stroke="none" stroke-width="1" fill="none" fill-rule="evenodd">
        <g id="Group">
            <rect id="Rectangle" x="0" y="0" width="16" height="16"></rect>
            <path d="M8,0 L11.6666667,2.33333333 L11.6666667,5.66666667 L13.3333333,5.66666667 L13.3333333,7.66666667 L11.8333333,7.66666667 L13.1666667,16 L2.83333333,16 L4.16666667,7.66666667 L2.66666667,7.66666667 L2.66666667,5.66666667 L4.33333333,5.66666667 L4.33333333,2.35340417 L8,0 Z M9.95666667,8.83333333 L5.81266667,10.3416667 L5.33333333,13.3586667 L10.3333333,11.5253333 L9.95666667,8.83333333 Z M8.00461235,2.37355419 L6.33333333,3.44624374 L6.33333333,5.66666667 L9.66666667,5.66666667 L9.66666667,3.43122512 L8.00461235,2.37355419 Z" id="Shape" fill="#F44B21"></path>
            <polygon id="Path" fill="#FFFFFF" points="9.95666667 8.83333333 5.81266667 10.3416667 5.33333333 13.3586667 10.3333333 11.5253333"></polygon>
            <path d="M8,16 C6.18474938,16 4.48818416,15.9903566 2.83333333,16 L4.16666667,7.66666667 L8.01181584,7.66666667 L8,16 Z" id="Path-Copy-4" fill="url(#linearGradient-1)" fill-rule="nonzero"></path>
            <polygon id="Path" fill="#FFF176" fill-rule="nonzero" points="9.66666667 5.66666667 9.66666667 3.39100426 8.00461235 2.33333333 6.33333333 3.40602288 6.33333333 5.66666667"></polygon>
            <rect id="Rectangle-Copy-13" fill="url(#linearGradient-2)" fill-rule="nonzero" transform="translate(5.333333, 6.666667) scale(-1, 1) translate(-5.333333, -6.666667) " x="2.66666667" y="5.66666667" width="5.33333333" height="2"></rect>
            <polygon id="Path-Copy-2" fill="url(#linearGradient-3)" fill-rule="nonzero" points="8 5.66666667 4.33333333 5.66666667 4.33333333 2.33333333 8 5.03301104e-15"></polygon>
            <polygon id="Path" fill="url(#linearGradient-4)" fill-rule="nonzero" points="8 0 11.6666667 2.33333333 11.6666667 5.66666667 13.3333333 5.66666667 13.3333333 7.66666667 11.8333333 7.66666667 13.1666667 16 2.83333333 16 4.16666667 7.66666667 2.66666667 7.66666667 2.66666667 5.66666667 4.33333333 5.66666667 4.33333333 2.35340417"></polygon>
        </g>
    </g>
</svg>