<?xml version="1.0" encoding="UTF-8"?>
<svg width="24px" height="24px" viewBox="0 0 24 24" version="1.1" xmlns="http://www.w3.org/2000/svg" xmlns:xlink="http://www.w3.org/1999/xlink">
    <!-- Generator: Sketch 58 (84663) - https://sketch.com -->
    <title>lh_symbol_24x24</title>
    <desc>Created with Sketch.</desc>
    <defs>
        <linearGradient x1="57.4556983%" y1="13.0858667%" x2="18.2589951%" y2="72.3221333%" id="linearGradient-1">
            <stop stop-color="#262626" stop-opacity="0.1" offset="0%"></stop>
            <stop stop-color="#262626" stop-opacity="0" offset="100%"></stop>
        </linearGradient>
        <linearGradient x1="100%" y1="50%" x2="0%" y2="50%" id="linearGradient-2">
            <stop stop-color="#262626" stop-opacity="0.1" offset="0%"></stop>
            <stop stop-color="#262626" stop-opacity="0" offset="100%"></stop>
        </linearGradient>
        <linearGradient x1="58.7644752%" y1="65.7560784%" x2="36.9391557%" y2="50.1399216%" id="linearGradient-3">
            <stop stop-color="#262626" stop-opacity="0.1" offset="0%"></stop>
            <stop stop-color="#262626" stop-opacity="0" offset="100%"></stop>
        </linearGradient>
        <linearGradient x1="41.6351481%" y1="20.3583333%" x2="72.8633333%" y2="85.4244444%" id="linearGradient-4">
            <stop stop-color="#FFFFFF" stop-opacity="0.1" offset="0%"></stop>
            <stop stop-color="#FFFFFF" stop-opacity="0" offset="100%"></stop>
        </linearGradient>
    </defs>
    <g id="lh_symbol_24x24" stroke="none" stroke-width="1" fill="none" fill-rule="evenodd">
        <rect id="Rectangle" x="0" y="0" width="24" height="24"></rect>
        <g transform="translate(6.000000, 3.000000)">
            <path d="M6,0 L10.125,2.625 L10.125,6.375 L12,6.375 L12,8.625 L10.3125,8.625 L11.8125,18 L0.1875,18 L1.6875,8.625 L0,8.625 L0,6.375 L1.875,6.375 L1.875,2.64758 L6,0 Z M8.2013,9.9375 L3.53925,11.6344 L3,15.0285 L8.625,12.966 L8.2013,9.9375 Z M6.0052,2.67025 L4.125,3.87702 L4.125,6.375 L7.875,6.375 L7.875,3.86013 L6.0052,2.67025 Z" id="Shape" fill="#F44B21"></path>
            <polygon id="Path" fill="#FFFFFF" points="8.2012 9.9375 3.53925 11.6344 3 15.0285 8.625 12.966"></polygon>
            <path d="M6,18 C3.95784,18 2.04921,17.9892 0.1875,18 L1.6875,8.625 L6.0133,8.625 L6,18 Z" id="Path" fill="url(#linearGradient-1)" fill-rule="nonzero"></path>
            <polygon id="Path" fill="#FFF176" fill-rule="nonzero" points="7.875 6.375 7.875 3.81488 6.0052 2.625 4.125 3.83178 4.125 6.375"></polygon>
            <polygon id="Path" fill="url(#linearGradient-2)" fill-rule="nonzero" points="0 6.375 6 6.375 6 8.625 0 8.625"></polygon>
            <polygon id="Path" fill="url(#linearGradient-3)" fill-rule="nonzero" points="6 6.375 1.875 6.375 1.875 2.625 6 0"></polygon>
            <polygon id="Path" fill="url(#linearGradient-4)" fill-rule="nonzero" points="6 0 10.125 2.625 10.125 6.375 12 6.375 12 8.625 10.3125 8.625 11.8125 18 0.1875 18 1.6875 8.625 0 8.625 0 6.375 1.875 6.375 1.875 2.64758"></polygon>
        </g>
    </g>
</svg>