<?xml version="1.0" encoding="UTF-8"?>
<svg width="24px" height="24px" viewBox="0 0 24 24" version="1.1" xmlns="http://www.w3.org/2000/svg" xmlns:xlink="http://www.w3.org/1999/xlink">
    <!-- Generator: Sketch 54.1 (76490) - https://sketchapp.com -->
    <title>symbol_b</title>
    <desc>Created with Sketch.</desc>
    <g id="symbol_b" stroke="none" stroke-width="1" fill="none" fill-rule="evenodd">
        <g id="symbol_1_black">
            <g id="Group">
                <rect id="Rectangle" x="0" y="0" width="24" height="24"></rect>
                <path d="M8.46318235,22.4190567 L8.78849489,19.8165564 L14.9553931,17.7676602 L15.5368176,22.4190567 C14.4268475,22.7957234 13.2372794,23 12,23 C10.7627206,23 9.57315251,22.7957234 8.46318235,22.4190567 L8.46318235,22.4190567 Z M6.55499976,21.56 C3.23678533,19.666 1,16.0942146 1,12 C1,5.92486775 5.92486775,1 12,1 C18.0751322,1 23,5.92486775 23,12 C23,16.0942146 20.7632147,19.666 17.4450002,21.56 L16.25,12 L17,12 L17,10 L16,10 L16,6 L12,3.5 L8,6 L8,10 L7,10 L7,12 L7.75,12 L6.55499985,21.5600012 L6.55499976,21.56 Z M14.2344356,12 L14.5946054,14.8813586 L9.17989975,16.6853175 L9.76556444,12 L14.2344356,12 Z M10,10 L10,7.10849528 L12,5.85849528 L14,7.10849528 L14,10 L10,10 Z" id="Shape" fill="#000000"></path>
            </g>
        </g>
    </g>
</svg>