<?xml version="1.0" encoding="UTF-8"?>
<svg width="192px" height="192px" viewBox="0 0 192 192" version="1.1" xmlns="http://www.w3.org/2000/svg" xmlns:xlink="http://www.w3.org/1999/xlink">
    <!-- Generator: Sketch 53.2 (72643) - https://sketchapp.com -->
    <title>symbol_3_black</title>
    <desc>Created with Sketch.</desc>
    <g id="symbol_3_black" stroke="none" stroke-width="1" fill="none" fill-rule="evenodd">
        <g id="Group">
            <g>
                <rect id="Rectangle" x="0" y="0" width="192" height="192"></rect>
                <path d="M72,36.4339811 L72,32 L68.2399915,38.7839864 L72,36.4339811 Z M96,21.4339811 L100.239992,18.7839864 L91.7600085,18.7839864 L96,21.4339811 Z M120,36.4339811 L123.760008,38.7839864 L120,32 L120,36.4339811 Z M132.949153,72 L136,72 L128,64 L128,80 L136,80 L136,72 L132.949153,72 Z M132.994739,174 L134.055718,182.942542 L142,174 L132.994739,174 Z M59.0052614,174 L50,174 L57.9442819,182.942542 L59.0052614,174 Z M67.5534782,72 L56,72 L56,80 L64,80 L64,64 L56,64 L56,72 L67.5534782,72 Z M120,72 L72,72 L72,36.4339811 L96,21.4339811 L120,36.4339811 L120,72 Z M67.0066604,106.559638 L123.00992,89.8422465 L128.475397,135.908405 L61.1398376,156.008572 L67.0066604,106.559638 Z" id="Shape" stroke="#000000" stroke-width="16" fill="#000000"></path>
                <rect id="Rectangle" fill="#000000" transform="translate(30.000000, 60.000000) scale(1, -1) rotate(10.000000) translate(-30.000000, -60.000000) " x="10" y="54" width="40" height="12"></rect>
                <rect id="Rectangle-Copy" fill="#000000" transform="translate(30.000000, 34.000000) rotate(10.000000) translate(-30.000000, -34.000000) " x="10" y="28" width="40" height="12"></rect>
                <rect id="Rectangle" fill="#000000" transform="translate(162.000000, 60.000000) scale(-1, -1) rotate(10.000000) translate(-162.000000, -60.000000) " x="142" y="54" width="40" height="12"></rect>
                <rect id="Rectangle-Copy" fill="#000000" transform="translate(162.000000, 34.000000) scale(-1, 1) rotate(10.000000) translate(-162.000000, -34.000000) " x="142" y="28" width="40" height="12"></rect>
            </g>
        </g>
    </g>
</svg>